<?xml version="1.0" encoding="UTF-8" standalone="no"?>
<svg
   viewBox="0 0 340.15799 302.36267"
   height="302.36267"
   width="340.15799"
   xml:space="preserve"
   id="svg2"
   version="1.1"
   sodipodi:docname="nix-trinity.svg"
   inkscape:version="1.3.2 (091e20ef0f, 2023-11-25)"
   xmlns:inkscape="http://www.inkscape.org/namespaces/inkscape"
   xmlns:sodipodi="http://sodipodi.sourceforge.net/DTD/sodipodi-0.dtd"
   xmlns="http://www.w3.org/2000/svg"
   xmlns:svg="http://www.w3.org/2000/svg"
   xmlns:rdf="http://www.w3.org/1999/02/22-rdf-syntax-ns#"
   xmlns:cc="http://creativecommons.org/ns#"
   xmlns:dc="http://purl.org/dc/elements/1.1/"><sodipodi:namedview
     id="namedview1"
     pagecolor="#7e7e7e"
     bordercolor="#000000"
     borderopacity="0.25"
     inkscape:showpageshadow="false"
     inkscape:pageopacity="0.0"
     inkscape:pagecheckerboard="0"
     inkscape:deskcolor="#d1d1d1"
     inkscape:zoom="2.8810142"
     inkscape:cx="170.25254"
     inkscape:cy="151.16205"
     inkscape:window-width="1920"
     inkscape:window-height="1080"
     inkscape:window-x="0"
     inkscape:window-y="0"
     inkscape:window-maximized="0"
     inkscape:current-layer="g12"
     showborder="false"
     labelstyle="default" /><metadata
     id="metadata8"><rdf:RDF><cc:Work
         rdf:about=""><dc:format>image/svg+xml</dc:format><dc:type
           rdf:resource="http://purl.org/dc/dcmitype/StillImage" /><dc:description>The Nix Holy Trinity: Nix is the Nix language, the Nix package manager, and NixOS.</dc:description></cc:Work></rdf:RDF></metadata><defs
     id="defs6" /><g
     transform="matrix(1.3333333,0,0,1.3333333,0,1.08924e-5)"
     id="g10"><rect
       style="fill:#000000;fill-opacity:0.0555942;stroke-width:0.859158"
       id="rect1"
       width="254.86827"
       height="226.77202"
       x="0.25023466"
       y="-8.1693006e-06" /><g
       transform="translate(28.401033,24.094524)"
       id="g12"><path
         id="path14"
         style="fill:#dddddd;fill-opacity:1;fill-rule:nonzero;stroke:#000000;stroke-width:4;stroke-linecap:butt;stroke-linejoin:miter;stroke-miterlimit:4;stroke-dasharray:none;stroke-opacity:1"
         d="m 99.15822,85.0395 c 14.07703,0 25.51185,11.43482 25.51185,25.51185 0,0 0,0 0,0 0,14.07703 -11.43482,25.51185 -25.51185,25.51185 0,0 0,0 0,0 -14.07703,0 -25.51185,-11.43482 -25.51185,-25.51185 0,0 0,0 0,0 0,-14.07703 11.43482,-25.51185 25.51185,-25.51185 0,0 0,0 0,0 0,0 0,0 0,0 0,0 0,0 0,0 z" /><g
         transform="translate(89.655606,107.57493)"
         id="g16"><text
   id="text20"
   style="font-style:normal;font-variant:normal;font-weight:normal;font-stretch:normal;font-size:11px;font-family:sans-serif;-inkscape-font-specification:'sans-serif, Normal';font-variant-ligatures:normal;font-variant-caps:normal;font-variant-numeric:normal;font-variant-east-asian:normal;writing-mode:lr-tb;fill:#000000;fill-opacity:1;fill-rule:nonzero;stroke:none"
   transform="translate(0,7.2402344)"><tspan
     id="tspan18"
     style="font-style:normal;font-variant:normal;font-weight:normal;font-stretch:normal;font-size:11px;font-family:sans-serif;-inkscape-font-specification:'sans-serif, Normal';font-variant-ligatures:normal;font-variant-caps:normal;font-variant-numeric:normal;font-variant-east-asian:normal">Nix</tspan></text>
</g><path
         id="path22"
         style="fill:#dddddd;fill-opacity:1;fill-rule:nonzero;stroke:#000000;stroke-opacity:1"
         d="m 99.15822,0 c 14.07703,0 25.51185,11.434819 25.51185,25.51185 0,0 0,0 0,0 0,14.077032 -11.43482,25.51185 -25.51185,25.51185 0,0 0,0 0,0 -14.07703,0 -25.51185,-11.434818 -25.51185,-25.51185 0,0 0,0 0,0 C 73.64637,11.434819 85.08119,0 99.15822,0 c 0,0 0,0 0,0 0,0 0,0 0,0 0,0 0,0 0,0 z" /><g
         transform="translate(80.688764,21.891733)"
         id="g24"><text
   id="text28"
   style="font-style:normal;font-variant:normal;font-weight:normal;font-stretch:normal;font-size:11px;font-family:sans-serif;-inkscape-font-specification:'sans-serif, Normal';font-variant-ligatures:normal;font-variant-caps:normal;font-variant-numeric:normal;font-variant-east-asian:normal;writing-mode:lr-tb;fill:#000000;fill-opacity:1;fill-rule:nonzero;stroke:none"
   x="-2.0846338"
   y="7.5046268"><tspan
     id="tspan26"
     style="font-style:normal;font-variant:normal;font-weight:normal;font-stretch:normal;font-size:11px;font-family:sans-serif;-inkscape-font-specification:'sans-serif, Normal';font-variant-ligatures:normal;font-variant-caps:normal;font-variant-numeric:normal;font-variant-east-asian:normal">Nixlang</tspan></text>
</g><path
         id="path30"
         style="fill:#dddddd;fill-opacity:1;fill-rule:nonzero;stroke:#000000;stroke-opacity:1"
         d="m 25.51185,127.55925 c 14.077032,0 25.51185,11.43481 25.51185,25.51185 0,0 0,0 0,0 0,14.07703 -11.434818,25.51185 -25.51185,25.51185 0,0 0,0 0,0 C 11.434819,178.58295 0,167.14813 0,153.0711 c 0,0 0,0 0,0 0,-14.07704 11.434819,-25.51185 25.51185,-25.51185 0,0 0,0 0,0 0,0 0,0 0,0 0,0 0,0 0,0 z" /><g
         transform="translate(0.09783717,149.0422)"
         id="g32"><text
   id="text36"
   style="font-style:normal;font-variant:normal;font-weight:normal;font-stretch:normal;font-size:11px;font-family:sans-serif;-inkscape-font-specification:'sans-serif, Normal';font-variant-ligatures:normal;font-variant-caps:normal;font-variant-numeric:normal;font-variant-east-asian:normal;writing-mode:lr-tb;fill:#000000;fill-opacity:1;fill-rule:nonzero;stroke:none"
   transform="translate(0,7.2402344)"><tspan
     id="tspan34"
     x="7.6860352"
     style="font-style:normal;font-variant:normal;font-weight:normal;font-stretch:normal;font-size:11px;font-family:sans-serif;-inkscape-font-specification:'sans-serif, Normal';font-variant-ligatures:normal;font-variant-caps:normal;font-variant-numeric:normal;font-variant-east-asian:normal">Nixpm</tspan></text>
</g><path
         id="path38"
         style="fill:#dddddd;fill-opacity:1;fill-rule:nonzero;stroke:#000000;stroke-opacity:1"
         d="m 172.8046,127.55925 c 14.07702,0 25.51184,11.43481 25.51184,25.51185 0,0 0,0 0,0 0,14.07703 -11.43482,25.51185 -25.51184,25.51185 0,0 0,0 0,0 -14.07705,0 -25.51186,-11.43482 -25.51186,-25.51185 0,0 0,0 0,0 0,-14.07704 11.43481,-25.51185 25.51186,-25.51185 0,0 0,0 0,0 0,0 0,0 0,0 0,0 0,0 0,0 z" /><g
         transform="translate(156.61237,149.20287)"
         id="g40"><text
   id="text44"
   style="font-style:normal;font-variant:normal;font-weight:normal;font-stretch:normal;font-size:11px;font-family:sans-serif;-inkscape-font-specification:'sans-serif, Normal';font-variant-ligatures:normal;font-variant-caps:normal;font-variant-numeric:normal;font-variant-east-asian:normal;writing-mode:lr-tb;fill:#000000;fill-opacity:1;fill-rule:nonzero;stroke:none"
   transform="translate(0,7.2402344)"><tspan
     id="tspan42"
     style="font-style:normal;font-variant:normal;font-weight:normal;font-stretch:normal;font-size:11px;font-family:sans-serif;-inkscape-font-specification:'sans-serif, Normal';font-variant-ligatures:normal;font-variant-caps:normal;font-variant-numeric:normal;font-variant-east-asian:normal">NixOS</tspan></text>
</g><path
         id="path46"
         style="fill:none;stroke:#000000;stroke-width:1.37475003;stroke-linecap:butt;stroke-linejoin:miter;stroke-miterlimit:4;stroke-dasharray:none;stroke-opacity:1"
         d="m 99.15822,85.039505 c 0,0 0,-34.015805 0,-34.015805" /><path
         id="path48"
         style="fill:none;stroke:#000000;stroke-width:1.37475003;stroke-linecap:butt;stroke-linejoin:miter;stroke-miterlimit:4;stroke-dasharray:none;stroke-opacity:1"
         d="m 77.065186,123.30677 c 0,0 -29.460306,17.00892 -29.460306,17.00892" /><path
         id="path50"
         style="fill:none;stroke:#000000;stroke-width:1.37475003;stroke-linecap:butt;stroke-linejoin:miter;stroke-miterlimit:4;stroke-dasharray:none;stroke-opacity:1"
         d="m 121.25125,123.30677 c 0,0 29.4603,17.00892 29.4603,17.00892" /><path
         id="path52"
         style="fill:none;stroke:#000000;stroke-width:1.37475003;stroke-linecap:butt;stroke-linejoin:miter;stroke-miterlimit:4;stroke-dasharray:none;stroke-opacity:1"
         d="m 86.4028,47.60488 c 0,0 -48.13553,83.37318 -48.13553,83.37318" /><path
         id="path54"
         style="fill:none;stroke:#000000;stroke-width:1.37475003;stroke-linecap:butt;stroke-linejoin:miter;stroke-miterlimit:4;stroke-dasharray:none;stroke-opacity:1"
         d="m 111.91364,47.60488 c 0,0 48.13552,83.37318 48.13552,83.37318" /><path
         id="path56"
         style="fill:none;stroke:#000000;stroke-width:1.37475003;stroke-linecap:butt;stroke-linejoin:miter;stroke-miterlimit:4;stroke-dasharray:none;stroke-opacity:1"
         d="m 51.0237,153.0711 c 0,0 96.26904,0 96.26904,0" /></g></g></svg>
